<svg xmlns="http://www.w3.org/2000/svg" width="66" height="66" viewBox="0 0 66 66"><g><g><path fill="#4d4d4d" d="M8.277 59.984h.965v1.928h-.965v3.855H2.251v-3.869L.488 61.88l.021-1.927 1.742.019v-3.842h6.026zM6.35 63.84v-5.783h-2.17v5.783zm33.344-1.96l-1.762.018v3.869h-6.027v-3.855h-.965v-1.927h.965v-3.856h6.027v3.842l1.74-.019zm-3.691-3.823h-2.17v5.783h2.17zM11.17 59.985h17.84v1.927H11.17zM8.277 6.94v1.927h-.964v1H5.384V6.015h1.93v.927zm42.431 10.638h-.964v1.928h.964v1.927h-.964v6.746H46.85v-1.927h.964V15.65h-1.929V30.59a2.413 2.413 0 0 1-2.41 2.409.483.483 0 0 0-.483.482v6.265a4.825 4.825 0 0 1-4.821 4.818 4.825 4.825 0 0 1-4.822-4.818V25.289c0-.45-.087-.618-.117-.641-.025-.02-.143-.082-.606-.082-.251 0-.493-.037-.723-.103v28.775c0 3.52-2.866 6.385-6.39 6.385a6.39 6.39 0 0 1-5.423-3.017 6.39 6.39 0 0 1-5.425 3.017c-3.522 0-6.388-2.864-6.388-6.385V19.145c0-3.151 2.296-5.775 5.303-6.291v-1.19a3.626 3.626 0 0 1-2.579-2.76h-1.76V6.978h1.895A3.63 3.63 0 0 1 13.58 4.7v-.854A3.62 3.62 0 0 1 17.198.231a3.62 3.62 0 0 1 3.616 3.614v3.637c0 2.169.953 4.23 2.574 5.643.41-.145.84-.249 1.283-.308v-1.153a3.62 3.62 0 0 1-2.652-3.482A3.621 3.621 0 0 1 24.74 4.68 5.311 5.311 0 0 1 29.975.23a5.308 5.308 0 0 1 5.304 5.302v34.214a2.895 2.895 0 0 0 2.893 2.89 2.895 2.895 0 0 0 2.893-2.89V33.48c0-1.329 1.081-2.41 2.41-2.41a.482.482 0 0 0 .483-.481V17.579h-.964V15.65h.964v-1.927h5.786v1.927h.964zM24.671 9.564V7.941H26.6v1.623a1.684 1.684 0 0 0-.965-3.069 1.684 1.684 0 1 0-.964 3.069zm-11.09 0V7.941h1.929v1.623a1.684 1.684 0 0 0-.964-3.069 1.684 1.684 0 1 0-.964 3.069zm-3.375 40.783h5.786V38.782h-5.786zm8.92 2.891V19.145c0-2.458-2-4.457-4.46-4.457-2.459 0-4.46 2-4.46 4.457v17.71h7.715v15.42h-7.715v.963c0 2.458 2 4.457 4.46 4.457s4.46-2 4.46-4.457zM21.607 14.1a9.44 9.44 0 0 1-2.722-6.616V3.845c0-.93-.757-1.686-1.687-1.686-.931 0-1.688.756-1.688 1.686V4.7a3.62 3.62 0 0 1 2.652 3.483 3.62 3.62 0 0 1-2.652 3.483v1.152a6.4 6.4 0 0 1 4.58 2.96 6.434 6.434 0 0 1 1.517-1.678zm8.368 24.683h-5.304v11.565h5.304zm0-19.637c0-2.458-2-4.457-4.46-4.457s-4.46 2-4.46 4.457v34.093c0 2.458 2 4.457 4.46 4.457s4.46-2 4.46-4.457v-.964h-7.233v-15.42h7.233zm3.375 3.554V5.532a3.378 3.378 0 0 0-3.375-3.373 3.38 3.38 0 0 0-3.277 2.568 3.62 3.62 0 0 1 2.554 3.455 3.62 3.62 0 0 1-2.652 3.482v1.19c3.007.516 5.304 3.14 5.304 6.29v2.772c0 .399.324.722.723.722.261 0 .5.023.723.061zM12.134 41.673h1.929V43.6h-1.929zm0 3.855h1.929v1.927h-1.929zm13.983-3.855h1.929V43.6h-1.929zm0 3.855h1.929v1.927h-1.929zM13.581 16.615h1.928v1.928h-1.928zm0 3.855h1.928v1.928h-1.928zm0 3.855h1.928v1.928h-1.928zm11.09-7.71h1.928v1.928H24.67zm0 3.855h1.928v1.928H24.67zm0 3.855h1.928v1.928H24.67zM50.707 5.05v1.927h-1.53l-2.327 2.327v2.492h-1.929v-3.29L48.38 5.05zm14.126 1.989l.678 1.804-7.879 2.953h-.174a5.79 5.79 0 0 1-5.786-5.782A5.79 5.79 0 0 1 57.459.23h.174l7.879 2.953-.678 1.804-7.541-2.826A3.86 3.86 0 0 0 53.6 6.014a3.86 3.86 0 0 0 3.692 3.851zm-.486-1.025l-2.185.892c-1.118.456-3.812 1.517-4.704 1.517a2.413 2.413 0 0 1-2.411-2.41 2.413 2.413 0 0 1 2.41-2.408c.893 0 3.587 1.06 4.705 1.516zm-5.259 0c-.782-.275-1.418-.47-1.64-.483a.481.481 0 0 0 .01.964c.216-.012.85-.206 1.63-.48zm-18.024 9.637v1.928h-1.206v.964h-1.928v-3.855h1.928v.963z"/></g></g></svg>