<svg xmlns="http://www.w3.org/2000/svg" width="53" height="53" viewBox="0 0 53 53"><g><g><path fill="#4d4d4d" d="M52.54 25.692v13.439c0 3.899-2.104 7.524-5.491 9.458l-7.085 4.047-6.09-3.48H12.787L.56 36.933V.55h40.243v16.761h-1.677V2.226H2.236v33.522h5.03v-6.704h17.607V44.13h-10.9v3.351h17.323a10.914 10.914 0 0 1-3.908-8.35V25.693h3.177c3.505 0 6.758-1.74 8.702-4.656l.697-1.046.698 1.046a10.438 10.438 0 0 0 8.702 4.656zM12.297 37.424H3.422l8.875 8.872zm1.677-1.676v6.705h9.222V30.72H8.944v5.028zm36.89-8.38h-1.5a12.11 12.11 0 0 1-9.4-4.457 12.11 12.11 0 0 1-9.399 4.456h-1.5v11.764a9.24 9.24 0 0 0 4.647 8.004l6.252 3.572 6.253-3.572a9.24 9.24 0 0 0 4.646-8.004zm-1.677 6.704v5.059c0 2.7-1.457 5.209-3.802 6.547l-.832-1.454a5.88 5.88 0 0 0 2.957-5.093v-5.059zM35.772 3.902V8.93H5.59V3.902zm-1.676 1.676H7.266v1.676h26.83zm14.007 24.896L35.773 42.8l-3.947-3.945 1.185-1.185 2.761 2.76 11.145-11.14zM10.62 32.396h10.9v1.676h-10.9zm5.03 3.352h5.87v1.676h-5.87zm0 3.353h5.87v1.676h-5.87zM5.59 12.282h26.829v1.676H5.59zm0 3.353h26.829v1.676H5.59zm0 3.352h26.829v1.676H5.59zm0 3.352h15.93v1.676H5.59zm0 3.353h15.93v1.675H5.59zm28.506-13.41h1.676v1.676h-1.677zm0 3.353h1.676v1.676h-1.677zm0 3.352h1.676v1.676h-1.677zm-10.9 3.352h1.677v1.676h-1.677zm0 3.353h1.677v1.675h-1.677z"/></g></g></svg>