<svg xmlns="http://www.w3.org/2000/svg">
	<defs>
		<style>
			.img { display: none }
			.img:target { display: inline }
		</style>
	</defs>
	<svg viewBox="0 0 16 16">
		<g id="chart" class="img">
			<rect x="6" width="4" height="16" />
			<rect x="12" y="4" width="4" height="12" />
			<rect x="0" y="8" width="4" height="8" />
		</g>
	</svg>
	<svg xmlns="http://www.w3.org/2000/svg" version="1.1" xmlns:xlink="http://www.w3.org/1999/xlink" xmlns:avocode="https://avocode.com/" viewBox="0 0 11 10">
		<g id="more-arrow" class="img">
			<g>
				<path d="M8.89645,0.64583v0l-0.00584,6.56718v0l-7.15565,-7.15511v0l-1.17599,1.17553v0l7.15565,7.15607v0l-6.56765,-0.00611v0v1.66992v0h9.40762v0v-9.40749v0z" fill="#ff6200" fill-opacity="1">
				</path>
			</g>
		</g>
	</svg>
	<svg xmlns="http://www.w3.org/2000/svg" version="1.1" xmlns:xlink="http://www.w3.org/1999/xlink" xmlns:avocode="https://avocode.com/" viewBox="0 0 11 10">
		<g id="more-arrow-white" class="img">
			<g>
				<path d="M8.89645,0.64583v0l-0.00584,6.56718v0l-7.15565,-7.15511v0l-1.17599,1.17553v0l7.15565,7.15607v0l-6.56765,-0.00611v0v1.66992v0h9.40762v0v-9.40749v0z" fill="#fff" fill-opacity="1">
				</path>
			</g>
		</g>
	</svg>
	<svg xmlns="http://www.w3.org/2000/svg" version="1.1" xmlns:xlink="http://www.w3.org/1999/xlink" xmlns:avocode="https://avocode.com/" viewBox="0 0 24 24">
		<g id="address" class="img">
			<g>
				<path d="M5.22534,12.17461c-0.81562,-1.63296 -1.22955,-2.98689 -1.22955,-4.02646c-0.00195,-1.08907 0.2116,-2.1672 0.62794,-3.17044c1.71696,-4.14089 6.40526,-6.08147 10.47295,-4.33472c0.13149,0.0569 0.22316,0.18065 0.24055,0.32498c0.01751,0.14433 -0.04189,0.28705 -0.15587,0.37449c-0.11398,0.08743 -0.26516,0.1064 -0.39665,0.04982c-1.78986,-0.7644 -3.80619,-0.7644 -5.59616,0c-2.66384,1.1495 -4.39407,3.8098 -4.39384,6.75587c0,0.91034 0.38349,2.1402 1.14235,3.65518c0.75966,1.47062 1.62151,2.88403 2.57881,4.22993c0.97378,1.39894 1.94733,2.65194 2.59232,3.45685c0.21458,0.26777 0.40752,0.50435 0.57209,0.70461c0.07679,0.08936 0.18768,0.14047 0.3043,0.14047c0.11662,0 0.22751,-0.05111 0.30441,-0.14047c0.16457,-0.20026 0.35751,-0.43685 0.57198,-0.70461c0.6451,-0.80523 1.61854,-2.05823 2.59232,-3.45685c0.9573,-1.3459 1.81915,-2.75931 2.57881,-4.22993c0.75817,-1.51498 1.14235,-2.74484 1.14235,-3.65518c0.0024,-1.94444 -0.75531,-3.81012 -2.10583,-5.18495c-0.1038,-0.1019 -0.14523,-0.2533 -0.1086,-0.39538c0.03662,-0.1424 0.1458,-0.2533 0.28542,-0.29027c0.13973,-0.03729 0.28816,0.00546 0.38841,0.11122c1.50043,1.52688 2.34226,3.59925 2.33952,5.75938c0,1.03956 -0.41382,2.3935 -1.22944,4.02453c-0.77728,1.50534 -1.65905,2.9525 -2.63866,4.33022c-0.98751,1.41694 -1.9725,2.6873 -2.62516,3.50057c-0.09556,0.11861 -0.18459,0.22887 -0.27088,0.33527h1.9709c0.22053,0 0.3994,0.18194 0.3994,0.40663c0,0.22469 -0.17887,0.40663 -0.3994,0.40663h-6.39107c-0.22064,0 -0.3994,-0.18194 -0.3994,-0.40663c0,-0.22469 0.17876,-0.40663 0.3994,-0.40663h1.97079c-0.08617,-0.1064 -0.17532,-0.21633 -0.27042,-0.33527c-0.653,-0.81616 -1.63845,-2.08362 -2.6255,-3.50057c-0.97961,-1.37708 -1.86138,-2.82328 -2.63855,-4.3283zM8.85049,7.09573c-0.29732,1.5227 0.50285,3.047 1.91139,3.64072c1.40842,0.59404 3.0328,0.09226 3.87978,-1.19836c0.84686,-1.29061 0.68047,-3.01068 -0.39757,-4.10842c-0.1038,-0.10222 -0.14545,-0.2533 -0.10883,-0.39538c0.03651,-0.1424 0.14557,-0.2533 0.28519,-0.29059c0.13973,-0.03729 0.28816,0.00514 0.38853,0.1109c1.34743,1.37194 1.55537,3.5221 0.49667,5.13545c-1.05869,1.61335 -3.08933,2.24049 -4.84989,1.49795c-1.76056,-0.74254 -2.76077,-2.64809 -2.38895,-4.55106c0.37182,-1.90297 2.0121,-3.27362 3.91766,-3.27362c0.22064,0 0.39951,0.18226 0.39951,0.40663c0,0.22469 -0.17887,0.40695 -0.39951,0.40695c-1.52447,0 -2.83665,1.09646 -3.13396,2.61884zM23.80482,23.38189c-0.22373,0.38702 -0.63412,0.62264 -1.07529,0.61718h-21.48994c-0.4414,0.00579 -0.8519,-0.22984 -1.07574,-0.61718c-0.2124,-0.36388 -0.21721,-0.81583 -0.01236,-1.18421l2.45613,-4.47391c0.22236,-0.39763 0.63835,-0.64193 1.08776,-0.63872h2.84672c0.22064,0 0.3994,0.18194 0.3994,0.40663c0,0.22469 -0.17876,0.40663 -0.3994,0.40663h-2.84683c-0.15976,-0.00321 -0.30876,0.08165 -0.38979,0.22212l-2.45579,4.47391c-0.06683,0.11636 -0.06546,0.26069 0.00355,0.37577c0.0816,0.13694 0.229,0.21923 0.38635,0.21569h21.48994c0.15747,0.00386 0.30499,-0.07843 0.38658,-0.21569c0.06912,-0.11508 0.0705,-0.25941 0.00366,-0.37577l-2.45579,-4.47391c-0.08114,-0.14047 -0.23037,-0.22533 -0.39024,-0.22212h-2.84683c-0.22064,0 -0.3994,-0.18194 -0.3994,-0.40663c0,-0.22469 0.17876,-0.40663 0.3994,-0.40663h2.84683c0.44907,-0.00289 0.86472,0.24141 1.08685,0.63872l2.45659,4.47391c0.20485,0.36838 0.20004,0.82033 -0.01236,1.18421zM19.97334,19.52516c0,0.22469 -0.17887,0.40695 -0.3994,0.40695h-1.478l-1.09646,0.74512c-0.18345,0.1244 -0.43156,0.07425 -0.55401,-0.11283c-0.12234,-0.18676 -0.0729,-0.43942 0.11066,-0.56414l1.19831,-0.81326c0.06569,-0.04468 0.14282,-0.06847 0.22167,-0.06847h1.59782c0.22053,0 0.3994,0.18194 0.3994,0.40663zM17.57672,21.55896h3.19553c0.22064,0 0.3994,0.18194 0.3994,0.40663c0,0.22469 -0.17876,0.40663 -0.3994,0.40663h-3.19553c-0.22064,0 -0.39951,-0.18194 -0.39951,-0.40663c0,-0.22469 0.17887,-0.40663 0.39951,-0.40663zM6.97068,20.6769l-1.0976,-0.74512h-1.478c-0.22053,0 -0.3994,-0.18194 -0.3994,-0.40663c0,-0.22469 0.17887,-0.40663 0.3994,-0.40663h1.59782c0.07896,0 0.15633,0.02379 0.22213,0.06815l1.19831,0.81358c0.14648,0.09933 0.21172,0.2848 0.16056,0.45646c-0.05116,0.17165 -0.20657,0.28898 -0.38269,0.28866c-0.07851,-0.00032 -0.15518,-0.02411 -0.22053,-0.06847zM6.3923,21.55896c0.22064,0 0.39951,0.18194 0.39951,0.40663c0,0.22469 -0.17887,0.40663 -0.39951,0.40663h-3.19553c-0.22053,0 -0.3994,-0.18194 -0.3994,-0.40663c0,-0.22469 0.17887,-0.40663 0.3994,-0.40663z" fill="#ff8a41" fill-opacity="1">
				</path>
			</g>
		</g>
	</svg>
	<svg xmlns="http://www.w3.org/2000/svg" version="1.1" xmlns:xlink="http://www.w3.org/1999/xlink" xmlns:avocode="https://avocode.com/" viewBox="0 0 25 24">
		<g id="phone" class="img">
			<g>
				<path d="M23.98371,20.37488l-1.22131,2.03091c-0.37491,0.63904 -0.9827,1.10739 -1.69556,1.30733c-0.6126,0.16587 -1.24477,0.24848 -1.87946,0.24559c-2.75768,0 -6.76975,-1.45005 -12.159,-6.84234c-6.77502,-6.7803 -7.32513,-11.38247 -6.59386,-14.04888c0.20016,-0.71329 0.66833,-1.32147 1.30646,-1.69692l2.0311,-1.22086c0.64613,-0.38863 1.48361,-0.19994 1.90098,0.42817l3.23914,4.86029c0.40718,0.61718 0.27283,1.44362 -0.30876,1.89976l-1.81789,1.41533c-0.23987,0.18323 -0.30807,0.51528 -0.15987,0.77855l0.14751,0.26937c0.48626,0.89105 1.09291,2.00262 3.32954,4.2415c2.23652,2.23888 3.3466,2.84481 4.23878,3.33116l0.26917,0.14851c0.26299,0.14626 0.59349,0.07683 0.77534,-0.1633l1.41483,-1.82004c0.4557,-0.58246 1.28185,-0.71651 1.89823,-0.30859l4.8571,3.24116c0.62817,0.41788 0.81654,1.25654 0.42755,1.90329zM23.10915,19.13859l-4.85664,-3.24116c-0.26756,-0.1768 -0.62588,-0.11861 -0.82386,0.13372l-1.41438,1.81939c-0.42309,0.55385 -1.1887,0.71169 -1.79626,0.37095l-0.26276,-0.14497c-0.93693,-0.51142 -2.10262,-1.14725 -4.42234,-3.4681c-2.31972,-2.32085 -2.95521,-3.48771 -3.46619,-4.42569l-0.14442,-0.2623c-0.34069,-0.60818 -0.18265,-1.37419 0.37067,-1.79754l1.81835,-1.41533c0.25223,-0.19801 0.31036,-0.55675 0.13355,-0.82451l-1.47686,-2.21638l-1.75953,-2.64327c-0.18116,-0.27259 -0.54462,-0.35456 -0.825,-0.1858l-2.03098,1.21925c-0.46131,0.27002 -0.80051,0.70783 -0.94654,1.22214c-0.67543,2.46229 -0.11604,6.76262 6.38821,13.27097c6.50425,6.50868 10.80219,7.06832 13.26233,6.39263c0.51338,-0.14594 0.95043,-0.48506 1.2196,-0.94602l1.21857,-2.03251c0.16891,-0.2803 0.08709,-0.64418 -0.18551,-0.82548zM13.3866,3.55127c0,-0.22116 0.17899,-0.4002 0.39986,-0.4002c4.19426,0.0045 7.59327,3.40574 7.59785,7.60288c0,0.22083 -0.17899,0.4002 -0.39986,0.4002c-0.22087,0 -0.39986,-0.17937 -0.39986,-0.4002c-0.00423,-3.75515 -3.04539,-6.79862 -6.79813,-6.8028c-0.22087,0 -0.39986,-0.17905 -0.39986,-0.39988zM13.3866,5.95216c0,-0.22116 0.17899,-0.4002 0.39986,-0.4002c2.86972,0.00321 5.19516,2.33018 5.19859,5.20199c0,0.22083 -0.1791,0.4002 -0.39997,0.4002c-0.22076,0 -0.39986,-0.17937 -0.39986,-0.4002c-0.00286,-2.42982 -1.97056,-4.39901 -4.39877,-4.40159c-0.22087,0 -0.39986,-0.17937 -0.39986,-0.4002zM13.3866,8.35305c0,-0.22116 0.17899,-0.4002 0.39986,-0.4002c1.54518,0.00161 2.79739,1.25493 2.79922,2.8011c0,0.22083 -0.1791,0.4002 -0.39986,0.4002c-0.22087,0 -0.39986,-0.17937 -0.39986,-0.4002c-0.00137,-1.10449 -0.89584,-1.99941 -1.99951,-2.00069c-0.22087,0 -0.39986,-0.17937 -0.39986,-0.4002z" fill="#ff8a41" fill-opacity="1">
				</path>
			</g>
		</g>
	</svg>
	<svg xmlns="http://www.w3.org/2000/svg" version="1.1" xmlns:xlink="http://www.w3.org/1999/xlink" xmlns:avocode="https://avocode.com/" viewBox="0 0 24 24">
		<g id="mail" class="img">
			<g>
				<path d="M24.00636,9.08685v13.61396c-0.00057,0.25459 -0.08297,0.50242 -0.23495,0.70654c-0.0024,0.00386 -0.00286,0.00739 -0.00561,0.01125c-0.00275,0.00418 -0.00767,0.00546 -0.01076,0.00932c-0.22522,0.29766 -0.57632,0.47285 -0.9494,0.47414h-21.61263c-0.37159,-0.00161 -0.72132,-0.17615 -0.9462,-0.47221c-0.00389,-0.0045 -0.00996,-0.00804 -0.0127,-0.01125c-0.00286,-0.00321 -0.0032,-0.00739 -0.00561,-0.01125c-0.15209,-0.20412 -0.23437,-0.45196 -0.23495,-0.70654v-13.61492c0,-0.00868 0.00481,-0.01575 0.00481,-0.02411c0.00252,-0.02732 0.00801,-0.054 0.01637,-0.08004c0.00549,-0.02379 0.01305,-0.04693 0.02277,-0.06911c0.01122,-0.02154 0.0246,-0.04211 0.04005,-0.06108c0.01545,-0.0225 0.0333,-0.0434 0.05322,-0.06204c0.00641,-0.00579 0.00916,-0.01318 0.01602,-0.01897l3.84785,-2.99075v-3.0994c0,-0.66347 0.53753,-1.20125 1.2006,-1.20125h4.33743l1.73698,-1.34912c0.42904,-0.33463 1.03065,-0.33463 1.45969,0l1.73664,1.34912h4.33731c0.66307,0 1.20071,0.53778 1.20071,1.20125v3.0994l3.84911,2.99075c0.00675,0.00546 0.0095,0.01318 0.01591,0.01864c0.01991,0.01897 0.03788,0.03954 0.05322,0.06236c0.01545,0.01897 0.02884,0.03954 0.04005,0.06108c0.00961,0.02218 0.01728,0.04532 0.02277,0.06911c0.00847,0.02636 0.01396,0.05368 0.01648,0.081c0.00034,0.00836 0.00469,0.01575 0.00481,0.02411zM10.83855,1.47914h2.32143l-0.92342,-0.71715c-0.13973,-0.11122 -0.3376,-0.11122 -0.47745,0zM22.7047,23.10133l-10.46803,-8.13295c-0.13985,-0.1109 -0.3376,-0.1109 -0.47745,0l-10.46539,8.13295zM23.20584,22.47708l-0.00011,-0.00009v0.00009zM23.20573,22.47699v-12.78036l-6.57017,5.10395c-0.11284,0.08968 -0.26516,0.11186 -0.39871,0.05786c-0.13367,-0.054 -0.22797,-0.17551 -0.24696,-0.31823c-0.01911,-0.14304 0.04017,-0.28512 0.15495,-0.37224l6.67465,-5.18528l-2.81559,-2.18906v3.09394c0,0.22116 -0.17921,0.40052 -0.4002,0.40052c-0.2211,0 -0.4002,-0.17937 -0.4002,-0.40052v-7.20718c0,-0.22116 -0.17921,-0.40052 -0.40031,-0.40052h-13.60794c-0.22099,0 -0.4002,0.17937 -0.4002,0.40052v7.20718c0,0.22116 -0.1791,0.40052 -0.4002,0.40052c-0.22099,0 -0.4002,-0.17937 -0.4002,-0.40052v-3.09394l-2.81559,2.18906l6.66309,5.17627c0.17475,0.13533 0.20645,0.38702 0.07095,0.56189c-0.1355,0.17487 -0.38692,0.20669 -0.56168,0.07104l-6.55861,-5.09527v12.78045l10.47684,-8.14035c0.42915,-0.33463 1.03054,-0.33463 1.45969,0zM15.28996,11.08722c-0.84972,0.045 -1.58535,-0.58439 -1.67255,-1.43141c-0.79193,0.72712 -1.97021,0.83898 -2.88483,0.2742c-0.91461,-0.56478 -1.34262,-1.66864 -1.04816,-2.70273c0.29457,-1.0341 1.24008,-1.74643 2.31491,-1.74385c0.22099,0 0.4002,0.17905 0.4002,0.4002c0,0.22116 -0.17921,0.40052 -0.4002,0.40052c-0.88417,0 -1.60091,0.71715 -1.60091,1.60145c0,0.88462 0.71674,1.60177 1.60091,1.60177c0.88417,0 1.60091,-0.71715 1.60091,-1.60177c0,-0.22116 0.1791,-0.4002 0.4002,-0.4002c0.22099,0 0.4002,0.17905 0.4002,0.4002v1.60177c0,0.44231 0.35843,0.80073 0.80051,0.80073c0.44209,0 0.8004,-0.35841 0.8004,-0.80073v-1.60177c0,-2.21124 -1.7918,-4.00395 -4.00223,-4.00395c-2.21043,0 -4.00234,1.79271 -4.00234,4.00395c0,2.21156 1.79192,4.00428 4.00234,4.00428c0.22099,0 0.4002,0.17905 0.4002,0.4002c0,0.22116 -0.17921,0.40052 -0.4002,0.40052c-2.65251,0 -4.80286,-2.15113 -4.80286,-4.805c0,-2.65355 2.15034,-4.80468 4.80286,-4.80468c2.65251,0 4.80274,2.15113 4.80274,4.80468v1.60177c0.00275,0.85119 -0.66238,1.55484 -1.51211,1.59985z" fill="#ff8a41" fill-opacity="1">
				</path>
			</g>
		</g>
	</svg>
	<svg xmlns="http://www.w3.org/2000/svg" version="1.1" xmlns:xlink="http://www.w3.org/1999/xlink" xmlns:avocode="https://avocode.com/" viewBox="0 0 24 24">
		<g id="time" class="img">
			<g>
				<path d="M24.00636,2.39467v20.41097c0,0.66315 -0.53753,1.20061 -1.2006,1.20061h-21.6116c-0.66307,0 -1.2006,-0.53746 -1.2006,-1.20061v-20.41097c0,-0.66315 0.53753,-1.20061 1.2006,-1.20061h0.80051v-0.80041c0,-0.22116 0.1791,-0.4002 0.4002,-0.4002c0.22099,0 0.4002,0.17905 0.4002,0.4002v0.80041h2.40131v-0.80041c0,-0.22116 0.1791,-0.4002 0.4002,-0.4002c0.22099,0 0.4002,0.17905 0.4002,0.4002v0.80041h2.4012v-0.80041c0,-0.22116 0.17921,-0.4002 0.40031,-0.4002c0.22099,0 0.4002,0.17905 0.4002,0.4002v0.80041h2.4012v-0.80041c0,-0.22116 0.17921,-0.4002 0.4002,-0.4002c0.2211,0 0.4002,0.17905 0.40031,0.4002v0.80041h2.4012v-0.80041c0,-0.22116 0.17921,-0.4002 0.4002,-0.4002c0.2211,0 0.4002,0.17905 0.4002,0.4002v0.80041h2.40131v-0.80041c0,-0.22116 0.17921,-0.4002 0.40031,-0.4002c0.22099,0 0.40009,0.17905 0.40009,0.4002v0.80041h2.40131v-0.80041c0,-0.22116 0.17921,-0.4002 0.4002,-0.4002c0.2211,0 0.4002,0.17905 0.4002,0.4002v0.80041h0.80051c0.66307,0 1.2006,0.53746 1.2006,1.20061zM23.20596,22.80565v-20.41097c0,-0.22083 -0.17921,-0.4002 -0.4002,-0.4002h-21.6116c-0.22099,0 -0.4002,0.17937 -0.4002,0.4002v2.40122h19.21028c0.22099,0 0.4002,0.17937 0.4002,0.4002c0,0.22116 -0.17921,0.4002 -0.4002,0.4002h-19.21028v17.20935c0,0.22083 0.17921,0.4002 0.4002,0.4002h21.6116c0.22099,0 0.4002,-0.17937 0.4002,-0.4002zM2.67903,2.91092c0.11547,0.11444 0.15015,0.28737 0.08778,0.43781c-0.06237,0.15012 -0.20943,0.24751 -0.37193,0.24655c-0.16262,0.00096 -0.30968,-0.09643 -0.37205,-0.24655c-0.06226,-0.15044 -0.02769,-0.32338 0.08778,-0.43781c0.16056,-0.14787 0.40787,-0.14787 0.56843,0zM5.88063,2.91092c0.15541,0.15655 0.15472,0.40952 -0.00149,0.56543c-0.15621,0.15558 -0.40901,0.15558 -0.56522,0c-0.15621,-0.1559 -0.1569,-0.40856 -0.00149,-0.56543c0.16079,-0.1469 0.40741,-0.1469 0.5682,0zM9.08246,2.91092c0.1553,0.15655 0.15461,0.40952 -0.0016,0.56543c-0.15621,0.15558 -0.40901,0.15558 -0.56522,0c-0.15621,-0.1559 -0.1569,-0.40856 -0.00149,-0.56543c0.16079,-0.1469 0.40741,-0.1469 0.56831,0zM12.28406,2.91092c0.1553,0.15655 0.15461,0.40952 -0.00149,0.56543c-0.15621,0.15558 -0.40901,0.15558 -0.56522,0c-0.15621,-0.1559 -0.1569,-0.40856 -0.0016,-0.56543c0.1609,-0.1469 0.40752,-0.1469 0.56831,0zM15.48577,2.91092c0.1553,0.15655 0.15461,0.40952 -0.00149,0.56543c-0.15621,0.15558 -0.40901,0.15558 -0.56522,0c-0.15621,-0.1559 -0.1569,-0.40856 -0.0016,-0.56543c0.1609,-0.1469 0.40741,-0.1469 0.56831,0zM18.68748,2.91092c0.15541,0.15655 0.15461,0.40952 -0.00149,0.56543c-0.15621,0.15558 -0.40901,0.15558 -0.56522,0c-0.15621,-0.1559 -0.1569,-0.40856 -0.0016,-0.56543c0.1609,-0.1469 0.40752,-0.1469 0.56831,0zM21.8892,2.91092c0.1553,0.15655 0.15461,0.40952 -0.0016,0.56543c-0.1561,0.15558 -0.4089,0.15558 -0.56511,0c-0.15621,-0.1559 -0.1569,-0.40856 -0.0016,-0.56543c0.1609,-0.1469 0.40752,-0.1469 0.56831,0zM21.60516,8.39803v12.0064c0,0.44199 -0.35843,0.80041 -0.80051,0.80041h-17.60937c-0.44209,0 -0.8004,-0.35841 -0.8004,-0.80041v-12.0064c0,-0.44231 0.35831,-0.80041 0.8004,-0.80041h17.60937c0.44209,0 0.8004,0.35809 0.80051,0.80041zM7.19739,18.00289h-4.00211v2.40154h4.00211zM7.19739,14.80127h-4.00211v2.40122h4.00211zM7.19739,11.59965h-4.00211v2.40122h4.00211zM7.19739,8.39803h-4.00211v2.40122h4.00211zM11.5997,18.00289h-3.60191v2.40154h3.60191zM11.5997,14.80127h-3.60191v2.40122h3.60191zM11.5997,11.59965h-3.60191v2.40122h3.60191zM11.5997,8.39803h-3.60191v2.40122h3.60191zM16.00201,18.00289h-3.60191v2.40154h3.60191zM16.00201,14.80127h-3.60191v2.40122h3.60191zM16.00201,11.59965h-3.60191v2.40122h3.60191zM16.00201,8.39803h-3.60191v2.40122h3.60191zM20.80464,18.00289h-4.00211v2.40154h4.00211zM20.80464,14.80127h-4.00211v2.40122h4.00211zM20.80464,11.59965h-4.00211v2.40122h4.00211zM20.80464,8.39803h-4.00211v2.40122h4.00211z" fill="#ff8a41" fill-opacity="1">
				</path>
			</g>
		</g>
	</svg>
	<svg xmlns="http://www.w3.org/2000/svg" version="1.1" xmlns:xlink="http://www.w3.org/1999/xlink" xmlns:avocode="https://avocode.com/" viewBox="0 0 20 20">
		<g id="phone-popup" class="img">
			<g>
				<path d="M19.31948,14.41587c0.45513,0.45099 0.69397,0.98749 0.69397,1.54616c0,0.55418 -0.23437,1.09517 -0.68035,1.55902c-0.19375,0.20316 -0.39207,0.39667 -0.58582,0.5815c-0.28381,0.27516 -0.55424,0.532 -0.7885,0.81551c-0.00458,0.009 -0.0135,0.01414 -0.01808,0.02282c-0.68481,0.74415 -1.55903,1.11767 -2.59987,1.11767c-0.09007,0 -0.18929,-0.00418 -0.28381,-0.009c-1.54552,-0.09933 -2.92889,-0.68083 -3.96526,-1.17136c-2.71248,-1.31183 -5.08713,-3.17301 -7.06066,-5.53051c-1.62666,-1.95569 -2.71706,-3.78151 -3.44707,-5.7507c-0.29743,-0.80266 -0.68493,-2.02834 -0.57678,-3.34402c0.0721,-0.81583 0.40112,-1.51916 0.97778,-2.09584l1.53202,-1.54616c0.00458,-0.0045 0.00458,-0.0045 0.00904,-0.00932c0.45055,-0.43203 0.98225,-0.66218 1.53202,-0.66218c0.54966,0 1.07243,0.23016 1.50948,0.66218c0.29285,0.27098 0.57678,0.55932 0.84709,0.8393c0.13515,0.14337 0.27935,0.2877 0.41908,0.42785l1.23001,1.22986c0.94631,0.94666 0.94631,2.17267 0,3.11933c-0.12611,0.12601 -0.25223,0.25684 -0.37846,0.38317c-0.33337,0.33752 -0.67589,0.68951 -1.0453,1.02735c0.27477,0.6085 0.65334,1.20768 1.21651,1.91969c1.16261,1.42884 2.37465,2.53301 3.70834,3.38035c0.13069,0.081 0.28393,0.15783 0.44609,0.23916c0.11272,0.0585 0.2298,0.11733 0.34698,0.18001l1.42387,-1.41984c0.45513,-0.45485 0.98682,-0.69368 1.54106,-0.69368c0.5587,0 1.08582,0.24301 1.52298,0.69883zM18.45442,15.26803l-2.4828,-2.48383c-0.00446,-0.00418 -0.00446,-0.00418 -0.00893,-0.00868c-0.13973,-0.15269 -0.36953,-0.32884 -0.64888,-0.32884c-0.28393,0 -0.52723,0.18483 -0.68047,0.33752l-1.54095,1.54166c-0.07656,0.0765 -0.31094,0.31116 -0.68493,0.31116c-0.14866,0 -0.29285,-0.03632 -0.44609,-0.11283c-0.01797,-0.009 -0.03605,-0.0225 -0.05402,-0.0315c-0.13069,-0.08133 -0.28393,-0.15815 -0.44609,-0.23916c-0.18024,-0.09001 -0.36953,-0.18451 -0.55424,-0.30184c-1.44642,-0.91516 -2.75757,-2.10902 -4.0012,-3.642l-0.00458,-0.00418c-0.68493,-0.86984 -1.13548,-1.59952 -1.45535,-2.3755c-0.00458,-0.01318 -0.00904,-0.027 -0.0135,-0.04018c-0.08114,-0.25652 -0.15324,-0.6355 0.23426,-1.02317c0.00446,-0.009 0.0135,-0.01318 0.02254,-0.0225c0.39196,-0.35134 0.75245,-0.71201 1.13102,-1.09967c0.13058,-0.12633 0.25681,-0.25748 0.3875,-0.38734c0.47756,-0.47799 0.47756,-0.91966 0,-1.39733l-1.23013,-1.23018c-0.1442,-0.14851 -0.28839,-0.29316 -0.42812,-0.43749c-0.27477,-0.28416 -0.53616,-0.55 -0.81104,-0.80683c-0.00446,-0.00418 -0.00904,-0.009 -0.0135,-0.0135c-0.1442,-0.14433 -0.37399,-0.31502 -0.65781,-0.31502c-0.2298,0 -0.46417,0.11219 -0.68493,0.31952l-1.53648,1.53684c-0.37399,0.37417 -0.57678,0.81133 -0.62187,1.33851c-0.06752,0.82484 0.0856,1.69949 0.50468,2.82135c0.68035,1.839 1.70769,3.55136 3.24429,5.4045c1.86092,2.22153 4.1003,3.97502 6.65062,5.20938c0.93269,0.44649 2.17632,0.96949 3.5146,1.05531c0.06763,0.00418 0.13973,0.00418 0.20725,0.00418c0.70301,0 1.23917,-0.23048 1.6943,-0.71651c0.27935,-0.32884 0.57678,-0.62232 0.86964,-0.90166c0.19375,-0.18869 0.37399,-0.36066 0.54966,-0.54968c-0.00446,0.0045 -0.00446,0 0,0c0.45959,-0.47767 0.45959,-0.95052 -0.00446,-1.41051z" fill="#cecece" fill-opacity="1">
				</path>
			</g>
		</g>
	</svg>
	<svg xmlns="http://www.w3.org/2000/svg" version="1.1" xmlns:xlink="http://www.w3.org/1999/xlink" xmlns:avocode="https://avocode.com/" viewBox="0 0 20 20">
		<g id="phone-popup-active" class="img">
			<g>
				<path d="M19.31948,14.41587c0.45513,0.45099 0.69397,0.98749 0.69397,1.54616c0,0.55418 -0.23437,1.09517 -0.68035,1.55902c-0.19375,0.20316 -0.39207,0.39667 -0.58582,0.5815c-0.28381,0.27516 -0.55424,0.532 -0.7885,0.81551c-0.00458,0.009 -0.0135,0.01414 -0.01808,0.02282c-0.68481,0.74415 -1.55903,1.11767 -2.59987,1.11767c-0.09007,0 -0.18929,-0.00418 -0.28381,-0.009c-1.54552,-0.09933 -2.92889,-0.68083 -3.96526,-1.17136c-2.71248,-1.31183 -5.08713,-3.17301 -7.06066,-5.53051c-1.62666,-1.95569 -2.71706,-3.78151 -3.44707,-5.7507c-0.29743,-0.80266 -0.68493,-2.02834 -0.57678,-3.34402c0.0721,-0.81583 0.40112,-1.51916 0.97778,-2.09584l1.53202,-1.54616c0.00458,-0.0045 0.00458,-0.0045 0.00904,-0.00932c0.45055,-0.43203 0.98225,-0.66218 1.53202,-0.66218c0.54966,0 1.07243,0.23016 1.50948,0.66218c0.29285,0.27098 0.57678,0.55932 0.84709,0.8393c0.13515,0.14337 0.27935,0.2877 0.41908,0.42785l1.23001,1.22986c0.94631,0.94666 0.94631,2.17267 0,3.11933c-0.12611,0.12601 -0.25223,0.25684 -0.37846,0.38317c-0.33337,0.33752 -0.67589,0.68951 -1.0453,1.02735c0.27477,0.6085 0.65334,1.20768 1.21651,1.91969c1.16261,1.42884 2.37465,2.53301 3.70834,3.38035c0.13069,0.081 0.28393,0.15783 0.44609,0.23916c0.11272,0.0585 0.2298,0.11733 0.34698,0.18001l1.42387,-1.41984c0.45513,-0.45485 0.98682,-0.69368 1.54106,-0.69368c0.5587,0 1.08582,0.24301 1.52298,0.69883zM18.45442,15.26803l-2.4828,-2.48383c-0.00446,-0.00418 -0.00446,-0.00418 -0.00893,-0.00868c-0.13973,-0.15269 -0.36953,-0.32884 -0.64888,-0.32884c-0.28393,0 -0.52723,0.18483 -0.68047,0.33752l-1.54095,1.54166c-0.07656,0.0765 -0.31094,0.31116 -0.68493,0.31116c-0.14866,0 -0.29285,-0.03632 -0.44609,-0.11283c-0.01797,-0.009 -0.03605,-0.0225 -0.05402,-0.0315c-0.13069,-0.08133 -0.28393,-0.15815 -0.44609,-0.23916c-0.18024,-0.09001 -0.36953,-0.18451 -0.55424,-0.30184c-1.44642,-0.91516 -2.75757,-2.10902 -4.0012,-3.642l-0.00458,-0.00418c-0.68493,-0.86984 -1.13548,-1.59952 -1.45535,-2.3755c-0.00458,-0.01318 -0.00904,-0.027 -0.0135,-0.04018c-0.08114,-0.25652 -0.15324,-0.6355 0.23426,-1.02317c0.00446,-0.009 0.0135,-0.01318 0.02254,-0.0225c0.39196,-0.35134 0.75245,-0.71201 1.13102,-1.09967c0.13058,-0.12633 0.25681,-0.25748 0.3875,-0.38734c0.47756,-0.47799 0.47756,-0.91966 0,-1.39733l-1.23013,-1.23018c-0.1442,-0.14851 -0.28839,-0.29316 -0.42812,-0.43749c-0.27477,-0.28416 -0.53616,-0.55 -0.81104,-0.80683c-0.00446,-0.00418 -0.00904,-0.009 -0.0135,-0.0135c-0.1442,-0.14433 -0.37399,-0.31502 -0.65781,-0.31502c-0.2298,0 -0.46417,0.11219 -0.68493,0.31952l-1.53648,1.53684c-0.37399,0.37417 -0.57678,0.81133 -0.62187,1.33851c-0.06752,0.82484 0.0856,1.69949 0.50468,2.82135c0.68035,1.839 1.70769,3.55136 3.24429,5.4045c1.86092,2.22153 4.1003,3.97502 6.65062,5.20938c0.93269,0.44649 2.17632,0.96949 3.5146,1.05531c0.06763,0.00418 0.13973,0.00418 0.20725,0.00418c0.70301,0 1.23917,-0.23048 1.6943,-0.71651c0.27935,-0.32884 0.57678,-0.62232 0.86964,-0.90166c0.19375,-0.18869 0.37399,-0.36066 0.54966,-0.54968c-0.00446,0.0045 -0.00446,0 0,0c0.45959,-0.47767 0.45959,-0.95052 -0.00446,-1.41051z" fill="#fff31a" fill-opacity="1">
				</path>
			</g>
		</g>
	</svg>
	<svg xmlns="http://www.w3.org/2000/svg" version="1.1" xmlns:xlink="http://www.w3.org/1999/xlink" xmlns:avocode="https://avocode.com/" viewBox="0 0 20 22">
		<g id="name-popup" class="img">
			<g>
				<path d="M19.99857,18.92468v1.35844c0,0.78723 -0.64133,1.42851 -1.42834,1.42851h-17.14062c-0.78701,0 -1.42834,-0.64129 -1.42834,-1.42851v-1.35844c0,-2.03509 1.44836,-3.80209 3.44387,-4.20132l3.12378,-0.62522c0.33291,-0.06558 0.57426,-0.3597 0.57426,-0.69979v-0.71586c-0.20565,-0.28512 -0.39997,-0.66668 -0.60276,-1.06399c-0.15427,-0.3012 -0.38715,-0.7583 -0.49141,-0.86662c-0.60276,-0.58986 -1.24844,-1.32404 -1.4455,-2.2871c-0.18002,-0.86662 -0.00137,-1.31826 0.18002,-1.67571l0.01991,-0.50082c-0.01705,-0.86148 -0.03994,-1.93287 0.19569,-2.58573c0.77419,-2.14984 3.08819,-3.34499 4.9736,-3.41667c0.92136,0.02282 1.67416,0.22566 2.41539,0.63582c0.08148,0.04436 0.31425,0.08454 0.48431,0.11283c0.42847,0.07265 0.96268,0.16426 1.32545,0.55578c0.51281,0.55964 0.71709,1.18871 0.74135,2.30092c0.24284,0.92159 0.24284,2.19967 0.24284,2.89785c0.20714,0.35745 0.38567,0.80908 0.20714,1.67699c-0.19718,0.95888 -0.84274,1.69435 -1.44836,2.28678c-0.10288,0.10736 -0.33279,0.56157 -0.48569,0.86309c-0.19993,0.39827 -0.39276,0.78015 -0.59853,1.06528v0.71715c0,0.34009 0.24147,0.63422 0.57278,0.69979l3.12389,0.62522c1.99688,0.39924 3.44524,2.16624 3.44524,4.20132zM18.57024,20.28312v-1.35844c0,-1.35683 -0.96565,-2.53494 -2.29546,-2.79949l-3.12389,-0.62554c-0.99838,-0.19865 -1.72256,-1.08264 -1.72256,-2.1013v-0.97109c0,-0.19126 0.07713,-0.37577 0.21423,-0.50982c0.12142,-0.11861 0.3828,-0.63615 0.53707,-0.94409c0.26573,-0.52717 0.49564,-0.9817 0.76138,-1.24143c0.47276,-0.46321 0.92846,-0.97238 1.04702,-1.55259c0.09281,-0.4526 0.0285,-0.57989 -0.05436,-0.74158c-0.07141,-0.14272 -0.18139,-0.35713 -0.18139,-0.64868c0,-0.60529 0,-1.86504 -0.21286,-2.59505c-0.01854,-0.06268 -0.0285,-0.12729 -0.0285,-0.19158c-0.01144,-0.98267 -0.17143,-1.23532 -0.36427,-1.44523c-0.05859,-0.03665 -0.34275,-0.08583 -0.51281,-0.11444c-0.30132,-0.05111 -0.64419,-0.10865 -0.93842,-0.27098c-0.54565,-0.30473 -1.05984,-0.44038 -1.7141,-0.45774c-1.32694,0.05207 -3.08521,0.93606 -3.63945,2.4729c-0.14568,0.40245 -0.12428,1.44844 -0.11147,2.07302l0.00721,0.5291c0,0.29155 -0.1086,0.50596 -0.18139,0.64868c-0.08286,0.16169 -0.14717,0.28898 -0.05436,0.74029c0.12005,0.58246 0.57278,1.09067 1.04702,1.55388c0.26424,0.25716 0.49564,0.71104 0.76424,1.23661c0.1585,0.3102 0.42274,0.8303 0.54565,0.95052c0.13561,0.13244 0.21275,0.31695 0.21275,0.50821v0.97109c0,1.01867 -0.72418,1.90265 -1.72256,2.0997l-3.12241,0.62586c-1.33129,0.26584 -2.29694,1.44394 -2.29694,2.80078v1.35844z" fill="#cecece" fill-opacity="1">
				</path>
			</g>
		</g>
	</svg>
	<svg xmlns="http://www.w3.org/2000/svg" version="1.1" xmlns:xlink="http://www.w3.org/1999/xlink" xmlns:avocode="https://avocode.com/" viewBox="0 0 20 22">
		<g id="name-popup-active" class="img">
			<g>
				<path d="M19.99857,18.92468v1.35844c0,0.78723 -0.64133,1.42851 -1.42834,1.42851h-17.14062c-0.78701,0 -1.42834,-0.64129 -1.42834,-1.42851v-1.35844c0,-2.03509 1.44836,-3.80209 3.44387,-4.20132l3.12378,-0.62522c0.33291,-0.06558 0.57426,-0.3597 0.57426,-0.69979v-0.71586c-0.20565,-0.28512 -0.39997,-0.66668 -0.60276,-1.06399c-0.15427,-0.3012 -0.38715,-0.7583 -0.49141,-0.86662c-0.60276,-0.58986 -1.24844,-1.32404 -1.4455,-2.2871c-0.18002,-0.86662 -0.00137,-1.31826 0.18002,-1.67571l0.01991,-0.50082c-0.01705,-0.86148 -0.03994,-1.93287 0.19569,-2.58573c0.77419,-2.14984 3.08819,-3.34499 4.9736,-3.41667c0.92136,0.02282 1.67416,0.22566 2.41539,0.63582c0.08148,0.04436 0.31425,0.08454 0.48431,0.11283c0.42847,0.07265 0.96268,0.16426 1.32545,0.55578c0.51281,0.55964 0.71709,1.18871 0.74135,2.30092c0.24284,0.92159 0.24284,2.19967 0.24284,2.89785c0.20714,0.35745 0.38567,0.80908 0.20714,1.67699c-0.19718,0.95888 -0.84274,1.69435 -1.44836,2.28678c-0.10288,0.10736 -0.33279,0.56157 -0.48569,0.86309c-0.19993,0.39827 -0.39276,0.78015 -0.59853,1.06528v0.71715c0,0.34009 0.24147,0.63422 0.57278,0.69979l3.12389,0.62522c1.99688,0.39924 3.44524,2.16624 3.44524,4.20132zM18.57024,20.28312v-1.35844c0,-1.35683 -0.96565,-2.53494 -2.29546,-2.79949l-3.12389,-0.62554c-0.99838,-0.19865 -1.72256,-1.08264 -1.72256,-2.1013v-0.97109c0,-0.19126 0.07713,-0.37577 0.21423,-0.50982c0.12142,-0.11861 0.3828,-0.63615 0.53707,-0.94409c0.26573,-0.52717 0.49564,-0.9817 0.76138,-1.24143c0.47276,-0.46321 0.92846,-0.97238 1.04702,-1.55259c0.09281,-0.4526 0.0285,-0.57989 -0.05436,-0.74158c-0.07141,-0.14272 -0.18139,-0.35713 -0.18139,-0.64868c0,-0.60529 0,-1.86504 -0.21286,-2.59505c-0.01854,-0.06268 -0.0285,-0.12729 -0.0285,-0.19158c-0.01144,-0.98267 -0.17143,-1.23532 -0.36427,-1.44523c-0.05859,-0.03665 -0.34275,-0.08583 -0.51281,-0.11444c-0.30132,-0.05111 -0.64419,-0.10865 -0.93842,-0.27098c-0.54565,-0.30473 -1.05984,-0.44038 -1.7141,-0.45774c-1.32694,0.05207 -3.08521,0.93606 -3.63945,2.4729c-0.14568,0.40245 -0.12428,1.44844 -0.11147,2.07302l0.00721,0.5291c0,0.29155 -0.1086,0.50596 -0.18139,0.64868c-0.08286,0.16169 -0.14717,0.28898 -0.05436,0.74029c0.12005,0.58246 0.57278,1.09067 1.04702,1.55388c0.26424,0.25716 0.49564,0.71104 0.76424,1.23661c0.1585,0.3102 0.42274,0.8303 0.54565,0.95052c0.13561,0.13244 0.21275,0.31695 0.21275,0.50821v0.97109c0,1.01867 -0.72418,1.90265 -1.72256,2.0997l-3.12241,0.62586c-1.33129,0.26584 -2.29694,1.44394 -2.29694,2.80078v1.35844z" fill="#fff31a" fill-opacity="1">
				</path>
			</g>
		</g>
	</svg>
	<svg xmlns="http://www.w3.org/2000/svg" version="1.1" xmlns:xlink="http://www.w3.org/1999/xlink" xmlns:avocode="https://avocode.com/" viewBox="0 0 17 10">
		<g id="arrow-drop" class="img">
			<g>
				<path d="M9.1876,9.21837l7.50389,-7.19432c0.36015,-0.35906 0.36015,-0.94152 0,-1.3009c-0.36049,-0.35906 -0.9446,-0.35906 -1.30508,0l-6.89816,6.53375v0l-6.89838,-6.53278c-0.36015,-0.35938 -0.94471,-0.35938 -1.30486,0c-0.36037,0.35906 -0.36037,0.94152 0,1.3009l7.50401,7.194c0.1918,0.19158 0.44632,0.27387 0.69809,0.26102c0.25303,0.01157 0.50755,-0.07008 0.70049,-0.26166z" fill="#ff6200" fill-opacity="1">
				</path>
			</g>
		</g>
	</svg>
	<svg xmlns="http://www.w3.org/2000/svg" version="1.1" xmlns:xlink="http://www.w3.org/1999/xlink" xmlns:avocode="https://avocode.com/" viewBox="0 0 20 20">
		<g id="email-popup" class="img">
			<g>
				<path d="M14.66195,6.44778c0,0.96866 -0.8963,1.75666 -1.99802,1.75666c-0.51132,0 -0.97824,-0.16997 -1.33198,-0.44882c-0.35385,0.27885 -0.82066,0.44882 -1.33198,0.44882c-1.10172,0 -1.99802,-0.788 -1.99802,-1.75666c0,-0.96847 0.8963,-1.75647 1.99802,-1.75647c1.10172,0 1.99802,0.788 1.99802,1.75647c0,0.003 0,0.00581 0,0.00881c0.01694,0.35306 0.33039,0.57662 0.66593,0.57662c0.36724,0 0.66605,-0.26254 0.66605,-0.58543c0,-1.61424 -1.49391,-2.92752 -3.33,-2.92752c-1.8362,0 -3.33,1.31328 -3.33,2.92752c0,1.00201 0.57541,1.92438 1.53934,2.46727c0.98785,0.55638 2.21306,0.60923 3.36124,0.14467c0.33417,-0.13511 0.72968,-0.00656 0.88337,0.28728c0.15381,0.29365 0.00744,0.64146 -0.32661,0.77657c-1.57024,0.63509 -3.25996,0.55263 -4.63657,-0.22263c-1.348,-0.75933 -2.15275,-2.05012 -2.15275,-3.45316c0,-2.25982 2.09129,-4.09837 4.66198,-4.09837c2.57057,0 4.66198,1.83855 4.66198,4.09837zM10.66132,6.38088c-0.03799,-0.2914 -0.31986,-0.51871 -0.66135,-0.51871c-0.36724,0 -0.66605,0.26273 -0.66605,0.58562c0,0.32289 0.29881,0.58543 0.66605,0.58543c0.33073,0 0.60516,-0.21326 0.65655,-0.49154c-0.00687,-0.05341 -0.00515,-0.10757 0.00481,-0.16079zM19.98997,7.69697v10.53883c0,0.96772 -0.89516,1.75628 -1.99802,1.75628h-15.98396c-1.10046,0 -1.99802,-0.78651 -1.99802,-1.75628c0,-0.00019 0,-10.53939 0,-10.53996c0.00034,-0.14467 0.06374,-0.29365 0.1886,-0.40665c0.00217,-0.00206 0.00412,-0.00431 0.00652,-0.00637l2.46883,-2.17043v-4.51964c0,-0.32326 0.29823,-0.58524 0.66605,-0.58524h13.32001c0.36781,0 0.66593,0.26198 0.66593,0.58524v4.51964l2.46895,2.17043c0.12554,0.11038 0.19489,0.26161 0.19501,0.41302c0,0.00056 0.00011,0.00094 0.00011,0.00112zM17.3259,8.62533l1.05618,-0.92855l-1.05618,-0.92836zM4.0059,9.79637l3.60592,3.17001h4.77631l3.6058,-3.17001c0,-0.00019 0,-8.61783 0,-8.61801h-11.98803c0,0.00019 0,8.61783 0,8.61801zM1.61774,7.69678l1.05618,0.92855v-1.85692zM6.39405,13.55181l-5.05211,-4.4415v8.88299zM17.71603,18.82123l-5.32791,-4.6838h-4.77631l-5.32803,4.6838zM18.658,9.11031l-5.05222,4.4415l5.05222,4.4415z" fill="#cecece" fill-opacity="1">
				</path>
			</g>
		</g>
	</svg>
	<svg xmlns="http://www.w3.org/2000/svg" version="1.1" xmlns:xlink="http://www.w3.org/1999/xlink" xmlns:avocode="https://avocode.com/" viewBox="0 0 20 20">
		<g id="email-popup-active" class="img">
			<g>
				<path d="M14.66195,6.44778c0,0.96866 -0.8963,1.75666 -1.99802,1.75666c-0.51132,0 -0.97824,-0.16997 -1.33198,-0.44882c-0.35385,0.27885 -0.82066,0.44882 -1.33198,0.44882c-1.10172,0 -1.99802,-0.788 -1.99802,-1.75666c0,-0.96847 0.8963,-1.75647 1.99802,-1.75647c1.10172,0 1.99802,0.788 1.99802,1.75647c0,0.003 0,0.00581 0,0.00881c0.01694,0.35306 0.33039,0.57662 0.66593,0.57662c0.36724,0 0.66605,-0.26254 0.66605,-0.58543c0,-1.61424 -1.49391,-2.92752 -3.33,-2.92752c-1.8362,0 -3.33,1.31328 -3.33,2.92752c0,1.00201 0.57541,1.92438 1.53934,2.46727c0.98785,0.55638 2.21306,0.60923 3.36124,0.14467c0.33417,-0.13511 0.72968,-0.00656 0.88337,0.28728c0.15381,0.29365 0.00744,0.64146 -0.32661,0.77657c-1.57024,0.63509 -3.25996,0.55263 -4.63657,-0.22263c-1.348,-0.75933 -2.15275,-2.05012 -2.15275,-3.45316c0,-2.25982 2.09129,-4.09837 4.66198,-4.09837c2.57057,0 4.66198,1.83855 4.66198,4.09837zM10.66132,6.38088c-0.03799,-0.2914 -0.31986,-0.51871 -0.66135,-0.51871c-0.36724,0 -0.66605,0.26273 -0.66605,0.58562c0,0.32289 0.29881,0.58543 0.66605,0.58543c0.33073,0 0.60516,-0.21326 0.65655,-0.49154c-0.00687,-0.05341 -0.00515,-0.10757 0.00481,-0.16079zM19.98997,7.69697v10.53883c0,0.96772 -0.89516,1.75628 -1.99802,1.75628h-15.98396c-1.10046,0 -1.99802,-0.78651 -1.99802,-1.75628c0,-0.00019 0,-10.53939 0,-10.53996c0.00034,-0.14467 0.06374,-0.29365 0.1886,-0.40665c0.00217,-0.00206 0.00412,-0.00431 0.00652,-0.00637l2.46883,-2.17043v-4.51964c0,-0.32326 0.29823,-0.58524 0.66605,-0.58524h13.32001c0.36781,0 0.66593,0.26198 0.66593,0.58524v4.51964l2.46895,2.17043c0.12554,0.11038 0.19489,0.26161 0.19501,0.41302c0,0.00056 0.00011,0.00094 0.00011,0.00112zM17.3259,8.62533l1.05618,-0.92855l-1.05618,-0.92836zM4.0059,9.79637l3.60592,3.17001h4.77631l3.6058,-3.17001c0,-0.00019 0,-8.61783 0,-8.61801h-11.98803c0,0.00019 0,8.61783 0,8.61801zM1.61774,7.69678l1.05618,0.92855v-1.85692zM6.39405,13.55181l-5.05211,-4.4415v8.88299zM17.71603,18.82123l-5.32791,-4.6838h-4.77631l-5.32803,4.6838zM18.658,9.11031l-5.05222,4.4415l5.05222,4.4415z" fill="#fff31a" fill-opacity="1">
				</path>
			</g>
		</g>
	</svg>
	<svg xmlns="http://www.w3.org/2000/svg" version="1.1" xmlns:xlink="http://www.w3.org/1999/xlink" xmlns:avocode="https://avocode.com/" viewBox="0 0 14 26">
		<g id="arrow-slider" class="img">
			<g>
				<path d="M0.53599,14.07221l11.03531,11.5103c0.5508,0.55226 1.44436,0.55226 1.99551,0c0.55069,-0.55301 0.55069,-0.68512 0,-1.23794l-10.78606,-11.34483v0l10.02056,-10.58156c0.55126,-0.55245 1.31527,-1.44914 0.76401,-2.0014c-0.55069,-0.55263 -1.44424,-0.55263 -1.99551,0l-11.03485,11.51049c-0.29366,0.29403 -0.41977,0.68456 -0.39997,1.07079c-0.01774,0.3881 0.10735,0.77826 0.401,1.07416z" fill="#ffffff" fill-opacity="1">
				</path>
			</g>
		</g>
	</svg>
	<svg xmlns="http://www.w3.org/2000/svg" version="1.1" xmlns:xlink="http://www.w3.org/1999/xlink" xmlns:avocode="https://avocode.com/" viewBox="0 0 14 26">
		<g id="arrow-slider-hover" class="img">
			<g>
				<path d="M0.53599,14.07221l11.03531,11.5103c0.5508,0.55226 1.44436,0.55226 1.99551,0c0.55069,-0.55301 0.55069,-0.68512 0,-1.23794l-10.78606,-11.34483v0l10.02056,-10.58156c0.55126,-0.55245 1.31527,-1.44914 0.76401,-2.0014c-0.55069,-0.55263 -1.44424,-0.55263 -1.99551,0l-11.03485,11.51049c-0.29366,0.29403 -0.41977,0.68456 -0.39997,1.07079c-0.01774,0.3881 0.10735,0.77826 0.401,1.07416z" fill="#fff31a" fill-opacity="1">
				</path>
			</g>
		</g>
	</svg>
	<svg xmlns="http://www.w3.org/2000/svg" version="1.1" xmlns:xlink="http://www.w3.org/1999/xlink" xmlns:avocode="https://avocode.com/" viewBox="0 0 24 20">
		<g id="rekv" class="img">
			<g>
				<path d="M24.00633,1.50315v16.99279c0,0.82792 -0.53753,1.49918 -1.2006,1.49918h-21.6116c-0.66307,0 -1.2006,-0.67126 -1.2006,-1.49918v-16.99279c0,-0.82811 0.53753,-1.49936 1.2006,-1.49936h21.6116c0.66307,0 1.2006,0.67126 1.2006,1.49936zM23.20593,18.49594v-16.99279c0,-0.27604 -0.17921,-0.4996 -0.4002,-0.4996h-21.6116c-0.22099,0 -0.4002,0.22356 -0.4002,0.4996v16.99279c0,0.27604 0.17921,0.49998 0.4002,0.49998h10.40565v-15.99321c0,-0.27604 0.1791,-0.49979 0.4002,-0.49979c0.22099,0 0.4002,0.22375 0.4002,0.49979v15.99321h10.40554c0.22099,0 0.4002,-0.22394 0.4002,-0.49998zM3.99565,8.00021v-1.99878c0.00137,-1.3798 0.89653,-2.49744 2.00111,-2.49894h0.8004c1.1047,0.0015 1.99974,1.11932 2.00111,2.49894v1.99878c-0.00137,1.3798 -0.89653,2.49744 -2.00111,2.49931h-0.8004c-1.10458,-0.00187 -1.99974,-1.11951 -2.00111,-2.49931zM4.79605,8.00021c0,0.82829 0.53764,1.49974 1.20071,1.49974h0.8004c0.66307,0 1.20071,-0.67144 1.20071,-1.49974v-1.99878c0,-0.82811 -0.53764,-1.49936 -1.20071,-1.49936h-0.8004c-0.66319,0 -1.20071,0.67126 -1.20071,1.49936zM9.99888,13.99785v2.49875c0,0.27604 -0.17921,0.50016 -0.4002,0.50016h-1.88347c-0.22099,0 -0.4002,-0.22413 -0.4002,-0.50016c0,-0.27566 0.17921,-0.4996 0.4002,-0.4996h1.48327v-1.99915c0.02415,-0.79475 -0.47035,-1.46451 -1.10664,-1.49936h-3.38974c-0.63641,0.03486 -1.13079,0.70461 -1.10664,1.49936v2.49931c0,0.27547 -0.1791,0.4996 -0.4002,0.4996c-0.22099,0 -0.4002,-0.22413 -0.4002,-0.4996v-2.49931c-0.02415,-1.34682 0.82855,-2.46427 1.90704,-2.49894h3.38974c1.07849,0.03467 1.93119,1.15212 1.90704,2.49894zM21.60502,4.50207c0,0.27604 -0.1791,0.4996 -0.4002,0.4996h-7.20383c-0.22099,0 -0.4002,-0.22356 -0.4002,-0.4996c0,-0.27604 0.17921,-0.4996 0.4002,-0.4996h7.20383c0.22099,0 0.4002,0.22356 0.4002,0.4996zM21.60502,7.50061c0,0.27604 -0.1791,0.4996 -0.4002,0.4996h-7.20383c-0.22099,0 -0.4002,-0.22356 -0.4002,-0.4996c0,-0.27604 0.17921,-0.4996 0.4002,-0.4996h7.20383c0.22099,0 0.4002,0.22356 0.4002,0.4996zM21.60502,10.49952c0,0.27604 -0.1791,0.4996 -0.4002,0.4996h-7.20383c-0.22099,0 -0.4002,-0.22356 -0.4002,-0.4996c0,-0.27604 0.17921,-0.49998 0.4002,-0.49998h7.20383c0.22099,0 0.4002,0.22394 0.4002,0.49998zM21.60502,13.49806c0,0.27604 -0.1791,0.49979 -0.4002,0.49979h-3.60191c-0.22099,0 -0.4002,-0.22375 -0.4002,-0.49979c0,-0.27604 0.17921,-0.49979 0.4002,-0.49979h3.60191c0.22099,0 0.4002,0.22375 0.4002,0.49979z" fill="#ff8a41" fill-opacity="1">
				</path>
			</g>
		</g>
	</svg>
	<svg xmlns="http://www.w3.org/2000/svg" version="1.1" xmlns:xlink="http://www.w3.org/1999/xlink" xmlns:avocode="https://avocode.com/" viewBox="0 0 14 14">
		<g id="arrow-link" class="img">
			<g>
				<path d="M5.79689,1.58078v0l4.63955,4.64823v0l-10.11921,0.00075v0l-0.00034,1.66254v0h10.1199v0l-4.64836,4.63923v0l1.1808,1.18154v0l6.65222,-6.65167v0l-6.65211,-6.65317v0z" fill="#ff6200" fill-opacity="1">
				</path>
			</g>
		</g>
	</svg>
	
	<svg  xmlns="http://www.w3.org/2000/svg" version="1.1" xmlns:xlink="http://www.w3.org/1999/xlink" xmlns:avocode="https://avocode.com/" viewBox="0 0 19 34">
		<g id="video" class="img">
			<g>
				<path d="M1.44415,31.9536l-0.20016,-30.20897c0.55309,-0.56042 1.44985,-0.56042 2.00306,0l14.02164,14.19192c0.55309,0.55893 0.55309,1.46774 0,2.02667l-14.02164,14.19267c-0.55321,0.55968 -1.44997,0.55968 -2.00306,0" fill-opacity="0" fill="#ffffff" stroke-dashoffset="0" stroke-dasharray="" stroke-linejoin="miter" stroke-linecap="butt" stroke-opacity="1" stroke="#ffffff" stroke-miterlimit="20" stroke-width="4" clip-path="url(&quot;#ClipPath1016&quot;)">
				</path>
			</g>
		</g>
	</svg>
</svg>
