<svg xmlns="http://www.w3.org/2000/svg" width="53" height="47" viewBox="0 0 53 47"><g><g><path fill="#4d4d4d" d="M44.049 44.335c-.25.05-.497.081-.744.095h8.375a.867.867 0 0 1 0 1.733H1.42a.866.866 0 1 1 0-1.733h11.862a5.201 5.201 0 0 1-4.826-4.16c-.012-.056-.017-.117-.027-.174H1.42a.866.866 0 0 1-.866-.866v-6.932c0-.479.388-.867.867-.867h.866V5.435H1.42a.867.867 0 0 1-.867-.867V1.102c0-.479.388-.867.867-.867h34.662c.479 0 .867.388.867.867v3.466a.867.867 0 0 1-.867.867h-.867v6.931h7.8c.29 0 .56.146.72.387l6.933 10.398c.095.143.145.31.146.482v7.798h.866c.479 0 .867.388.867.867v6.932a.866.866 0 0 1-.867.866h-3.544c-.01.062-.016.127-.029.185v.006a5.2 5.2 0 0 1-4.058 4.048zm2.432-5.105a3.466 3.466 0 1 0-6.932 0 3.466 3.466 0 0 0 6.932 0zM35.215 14.1v17.331h13.866V27.1H37.815a.867.867 0 0 1 0-1.733h11.266v-1.474L42.55 14.1zM2.286 3.703h32.93V1.969H2.285zM4.02 5.435V31.43h29.463V5.435zm6.116 29.887c.022-.019.042-.04.065-.058.203-.17.419-.325.645-.462l.113-.069c.227-.13.464-.244.708-.34l.128-.048a5.3 5.3 0 0 1 .78-.215c.035-.007.07-.01.104-.016a4.845 4.845 0 0 1 1.745 0l.104.016c.265.052.526.124.78.215l.128.049c.245.095.481.208.708.34l.113.068c.227.137.442.292.646.462.022.018.042.04.064.058.208.18.402.376.579.587l.01.011c.174.214.331.44.47.678.018.027.038.055.055.086a5.052 5.052 0 0 1 .38.85c.089.252.157.512.204.775.004.02.015.036.015.055h19.206c.004-.019.015-.036.015-.055.047-.263.115-.523.204-.775a5.027 5.027 0 0 1 .38-.85l.055-.086c.139-.238.297-.464.471-.678l.01-.011c.176-.21.37-.407.579-.587.021-.019.041-.04.064-.058.203-.17.419-.325.645-.462l.113-.069c.227-.13.464-.244.708-.34l.128-.048a5.3 5.3 0 0 1 .78-.215c.035-.007.07-.01.104-.016a4.845 4.845 0 0 1 1.745 0l.104.016c.265.052.526.124.78.215l.128.049c.245.095.481.208.708.34l.113.068c.227.137.442.292.646.462.022.018.042.04.064.058.208.18.402.376.579.587l.01.011c.174.214.331.44.47.678.018.027.038.055.055.086a5.052 5.052 0 0 1 .38.85c.089.252.157.512.204.775.004.02.015.036.015.055h2.672v-5.2H2.286v5.2h6.136c.004-.019.015-.036.015-.055.047-.263.115-.523.204-.775a5.04 5.04 0 0 1 .38-.85l.055-.086c.139-.238.296-.464.471-.678l.01-.011c.176-.21.37-.407.578-.587zm2.724 7.306a3.466 3.466 0 1 0 1.385-6.793 3.466 3.466 0 0 0-1.385 6.793zm.948 1.802H42.71a5.201 5.201 0 0 1-4.79-4.157c-.013-.056-.018-.117-.028-.174h-19.22c-.01.062-.015.127-.028.185a5.2 5.2 0 0 1-4.837 4.146zm-.255-2.6a2.6 2.6 0 1 1 .001-5.2 2.6 2.6 0 0 1-.001 5.2zm.866-2.6a.867.867 0 1 0-1.733.001.867.867 0 0 0 1.733 0zm31.196 0a2.6 2.6 0 1 1-5.201 0 2.6 2.6 0 0 1 5.201 0zm-1.733 0a.867.867 0 1 0-1.733.001.867.867 0 0 0 1.733 0zM36.95 22.766V16.7c0-.479.388-.867.866-.867h3.466c.28 0 .543.136.706.364l4.333 6.065a.866.866 0 0 1-.706 1.37h-7.799a.867.867 0 0 1-.866-.866zm1.733-.866h5.248l-3.095-4.334h-2.153zM7.486 18.433c0-6.222 5.043-11.265 11.265-11.265 6.219.007 11.258 5.046 11.265 11.265 0 6.222-5.043 11.265-11.265 11.265S7.486 24.655 7.486 18.433zm1.733 0c0 5.264 4.267 9.532 9.532 9.532 5.262-.006 9.526-4.27 9.532-9.532a9.531 9.531 0 0 0-9.532-9.532 9.532 9.532 0 0 0-9.532 9.532zm3.488 1.248a.867.867 0 0 1 1.247-1.204l3.064 3.063 6.74-6.74a.866.866 0 0 1 1.225 1.225L17.63 23.38a.867.867 0 0 1-1.225 0l-3.677-3.677a.428.428 0 0 1-.021-.02z"/></g></g></svg>