<svg xmlns="http://www.w3.org/2000/svg" width="52" height="52" viewBox="0 0 52 52"><g><g><path fill="#4d4d4d" d="M51.99 38.575v8.384h-5.03v-1.677h-4.192a4.197 4.197 0 0 1-4.192-4.192V12.585c0-4.16-3.386-7.546-7.546-7.546s-7.545 3.385-7.545 7.546v4.345c.263-.093.543-.153.838-.153.647 0 1.23.252 1.677.654a2.5 2.5 0 0 1 1.677-.654c.331 0 .645.068.935.185A2.51 2.51 0 0 1 31.03 15.1h1.677a2.518 2.518 0 0 1 2.515 2.515v31.86a2.518 2.518 0 0 1-2.515 2.515H31.03a2.51 2.51 0 0 1-2.418-1.862c-.29.117-.604.185-.935.185-.647 0-1.231-.252-1.677-.655a2.5 2.5 0 0 1-1.677.655c-.646 0-1.23-.252-1.677-.655a2.5 2.5 0 0 1-1.676.655c-.647 0-1.231-.252-1.677-.655a2.5 2.5 0 0 1-1.677.655c-.646 0-1.23-.252-1.677-.655a2.5 2.5 0 0 1-1.677.655c-.646 0-1.23-.252-1.676-.655a2.5 2.5 0 0 1-1.677.655c-.647 0-1.231-.252-1.677-.655a2.5 2.5 0 0 1-1.677.655c-.331 0-.645-.068-.936-.185a2.51 2.51 0 0 1-2.418 1.862H2.525A2.518 2.518 0 0 1 .01 49.475v-31.86A2.518 2.518 0 0 1 2.525 15.1H4.2a2.51 2.51 0 0 1 2.418 1.862c.29-.117.605-.185.936-.185.647 0 1.23.252 1.677.654a2.5 2.5 0 0 1 1.677-.654c.646 0 1.23.252 1.677.654a2.5 2.5 0 0 1 1.676-.654c.647 0 1.231.252 1.677.654a2.5 2.5 0 0 1 1.677-.654c.295 0 .575.06.838.153v-4.345C18.454 5.65 24.096.009 31.03.009c6.935 0 12.576 5.641 12.576 12.576v27.667h3.354v-1.677zM5.04 46.959H1.686v2.516a.84.84 0 0 0 .839.838H4.2a.84.84 0 0 0 .839-.838zm0-25.152H1.686v23.475H5.04zm0-4.192a.84.84 0 0 0-.839-.838H2.525a.84.84 0 0 0-.839.838v2.515H5.04zm3.354 1.677a.84.84 0 0 0-.839-.838.84.84 0 0 0-.838.838v28.505c0 .463.376.84.838.84a.84.84 0 0 0 .839-.84zm6.707 0a.84.84 0 0 0-.839-.838.84.84 0 0 0-.838.838v.838h-1.677v-.838a.84.84 0 0 0-.838-.838.84.84 0 0 0-.839.838v28.505c0 .463.377.84.839.84a.84.84 0 0 0 .838-.84v-25.99h1.677v25.99c0 .463.376.84.838.84a.84.84 0 0 0 .839-.84zm3.353 0a.84.84 0 0 0-.838-.838.84.84 0 0 0-.838.838v28.505c0 .463.376.84.838.84a.84.84 0 0 0 .838-.84zm11.738.838h3.354v-2.515a.84.84 0 0 0-.839-.838H31.03a.84.84 0 0 0-.838.838zm0 25.152h3.354V21.807h-3.354zm0 4.193a.84.84 0 0 0 .838.838h1.677a.84.84 0 0 0 .838-.838v-2.516h-3.353zm-8.384-30.183a.84.84 0 0 0-.838-.838.84.84 0 0 0-.839.838v28.505c0 .463.377.84.839.84a.84.84 0 0 0 .838-.84zm1.677 0v28.505c0 .463.376.84.838.84a.84.84 0 0 0 .839-.84v-.838h1.676v.838c0 .463.377.84.839.84a.84.84 0 0 0 .838-.84V19.292a.84.84 0 0 0-.838-.838.84.84 0 0 0-.839.838v25.99h-1.676v-25.99a.84.84 0 0 0-.839-.838.84.84 0 0 0-.838.838zM43.606 41.93a1.678 1.678 0 0 1-1.676-1.677V12.585c0-6.01-4.89-10.9-10.9-10.9-6.01 0-10.899 4.89-10.899 10.9v4.345c.263-.093.543-.153.839-.153.295 0 .575.06.838.153v-4.345c0-5.085 4.137-9.222 9.222-9.222s9.223 4.137 9.223 9.222V41.09a2.518 2.518 0 0 0 2.515 2.515h.838zm3.354 0h-1.677v1.676h1.677zm3.354-1.677h-1.677v5.03h1.677z"/></g></g></svg>