<svg xmlns="http://www.w3.org/2000/svg" width="53" height="46" viewBox="0 0 53 46"><g><g><path fill="#4d4d4d" d="M6.619 40.315h1.733v1.733H6.619zm-3.466 0h1.733v1.733H3.153zm6.932 0h1.733v1.733h-1.733zm3.466 0h1.734v1.733H13.55zm3.467 0h1.733v1.733h-1.733zm3.466 0h1.733v1.733h-1.733zm3.466 0h1.733v1.733H23.95zm3.467 0h1.733v1.733h-1.733zm3.466 0h1.733v1.733h-1.733zm3.466 0h1.733v1.733h-1.733zm3.466 0h1.733v1.733h-1.733zm3.466 0h1.733v1.733h-1.733zm3.467 0h1.733v1.733h-1.733zm3.466 0h1.733v1.733h-1.733zm4.333-30.33v32.93a2.6 2.6 0 0 1-2.6 2.6H4.886A4.338 4.338 0 0 1 .553 41.18V4.786A4.338 4.338 0 0 1 4.886.453h38.128a2.6 2.6 0 0 1 2.6 2.6v4.333h4.333a2.6 2.6 0 0 1 2.6 2.599zm-50.26-5.2a2.6 2.6 0 0 0 2.599 2.6H43.88V3.053a.867.867 0 0 0-.867-.866H4.886a2.6 2.6 0 0 0-2.6 2.6zm48.527 15.599H39.548a2.6 2.6 0 0 0-2.6 2.6v3.466a2.6 2.6 0 0 0 2.6 2.599h11.266zm0-10.4a.867.867 0 0 0-.867-.865H4.886a4.293 4.293 0 0 1-2.6-.889v32.951a2.6 2.6 0 0 0 2.6 2.6h45.061a.866.866 0 0 0 .867-.867V30.783H39.548a4.338 4.338 0 0 1-4.333-4.333v-3.467a4.338 4.338 0 0 1 4.333-4.332h11.266zM4.019 4.787c0-.479.388-.867.867-.867h1.733a.867.867 0 0 1 0 1.734H4.886a.867.867 0 0 1-.867-.867zm5.2 0c0-.479.388-.867.866-.867h31.196a.867.867 0 0 1 0 1.734H10.085a.867.867 0 0 1-.866-.867zm-2.6 6.066h1.733v1.733H6.619zm-3.466 0h1.733v1.733H3.153zm6.932 0h1.733v1.733h-1.733zm3.466 0h1.734v1.733H13.55zm3.467 0h1.733v1.733h-1.733zm3.466 0h1.733v1.733h-1.733zm3.466 0h1.733v1.733H23.95zm3.467 0h1.733v1.733h-1.733zm3.466 0h1.733v1.733h-1.733zm3.466 0h1.733v1.733h-1.733zm3.466 0h1.733v1.733h-1.733zm3.466 0h1.733v1.733h-1.733zm3.467 0h1.733v1.733h-1.733zm3.466 0h1.733v1.733h-1.733zM41.28 22.117a2.6 2.6 0 1 1 0 5.199 2.6 2.6 0 0 1 0-5.199zm-.866 2.6a.867.867 0 1 0 1.733-.001.867.867 0 0 0-1.733 0z"/></g></g></svg>